<?xml version="1.0" encoding="UTF-8"?><svg id="Camada_2" xmlns="http://www.w3.org/2000/svg" viewBox="0 0 111.61 111.49"><defs><style>.cls-1{fill:#fc4949;}</style></defs><g id="Camada_2-2"><g><path class="cls-1" d="m73.56,82.08c-1.17-1.17-3.07-1.18-4.24,0l-20.35,20.14c-1.17,1.17-1.18,3.06,0,4.24l4.14,4.16c1.17,1.17,3.07,1.18,4.24,0l20.36-20.15c1.17-1.17,1.18-3.07,0-4.24l-4.14-4.16Z"/><path class="cls-1" d="m106.54,49.1c-1.17-1.17-3.07-1.18-4.24,0l-21.16,21.21c-1.17,1.17-1.18,3.07,0,4.24l4.14,4.16c1.17,1.17,3.07,1.18,4.24,0l21.15-21.2c1.17-1.17,1.18-3.06,0-4.24l-4.14-4.16Z"/><path class="cls-1" d="m52.76,70.79l4.14,4.16c1.17,1.17,3.07,1.18,4.24,0l49.59-49.55c1.17-1.17,1.18-3.06,0-4.24l-4.14-4.16c-1.17-1.17-3.07-1.18-4.24,0l-49.59,49.56c-1.17,1.17-1.18,3.07,0,4.24Z"/><path class="cls-1" d="m49.33,82.5l-4.14-4.16c-1.17-1.17-3.07-1.18-4.24,0l-24.06,23.82c-1.17,1.17-1.18,3.06,0,4.24l4.14,4.16c1.17,1.17,3.07,1.18,4.24,0l24.06-23.82c1.17-1.17,1.18-3.07,0-4.24Z"/><path class="cls-1" d="m48.68,18.87c1.17,1.17,3.07,1.18,4.24,0l9.72-9.59c1.17-1.17,1.18-3.06,0-4.24l-4.14-4.16c-1.17-1.17-3.07-1.18-4.24,0l-9.72,9.6c-1.17,1.17-1.18,3.07,0,4.24l4.14,4.16Z"/><path class="cls-1" d="m5.07,62.41c1.15,1.18,3.06,1.18,4.25,0l31.78-31.76c1.18-1.18,1.18-3.09,0-4.25l-4.14-4.16c-1.15-1.18-3.06-1.18-4.25,0L.94,54.01c-1.18,1.18-1.18,3.06,0,4.25l4.14,4.16Z"/><path class="cls-1" d="m57.29,46.64l11.64-11.6h0l25.79-25.7c1.17-1.17,1.18-3.06,0-4.24l-4.14-4.16c-1.17-1.17-3.07-1.18-4.24,0l-22.07,21.99s0,0,0,0L29.11,57.97.88,86.09c-1.17,1.17-1.18,3.06,0,4.24l4.14,4.16c1.17,1.17,3.07,1.18,4.24,0l48.03-47.86s0,0,0,0Z"/></g></g></svg>